<svg version="1.2" xmlns="http://www.w3.org/2000/svg" viewBox="0 0 411 308" width="411" height="308"><style>.a{fill:#bd7755}</style><path class="a" d="m296.8 36.3c-1.5 1.1-1.5 1.3 0.3 2.5 1.3 0.8 7.3 1.2 20.1 1.2 12.7 0 19.1-0.4 20.9-1.2l2.6-1.3c-4.4-2.2-10.6-2.5-23.7-2.5-12.9 0-19 0.4-20.2 1.3zm-9.3 7.1c-2.2 0.7-5.8 2.4-8 3.8-2.2 1.4-4.9 3.5-6 4.7-1.1 1.2-3 2.2-4.3 2.1-1.2 0-3.7 0.8-5.6 1.8-3.2 1.6-3.3 1.9-2.5 4.7 0.5 1.7 1.8 3.9 2.7 5 1.7 1.8 1.8 3.3 1 17-0.5 8.3-0.7 16.6-0.5 18.5 0.2 1.9 0.4 0 0.5-4.2l0.2-7.8c6.2-3.9 11.9-6.3 16.7-7.9 4.9-1.6 11.2-3.2 14-3.5 3-0.3 5.1-1 4.8-1.6-0.3-0.6 1.2-1.8 3.2-2.7 2.9-1.4 6.4-1.8 14.5-1.8 9.3 0 11 0.3 13.5 2.1 1.7 1.3 3 3.4 3.4 5.5 0.6 3.1 0.6 3.1 0.8 0.7 0-1.6 0.7-2.8 1.3-2.8 0.7 0 5.6 1 10.8 2.4 5.2 1.3 11.4 3.3 13.7 4.5 2.4 1.1 4.7 2.9 5.3 3.9 0.5 0.9 0.9 1.3 0.9 0.7 0-0.6 0.7-0.3 1.6 0.5 1.4 1.4 1.6 0.5 1.5-10-0.1-9.1 0.2-11.8 1.5-13 0.8-0.8 1.8-3.1 2.1-5 0.3-1.9 0-4.6-0.5-6-0.6-1.4-2.1-3-3.3-3.7-1.3-0.6-4.1-1.4-6.3-1.7-2.2-0.3-6.7-2-10-3.8l-6-3.3c-49.5-0.4-58.1-0.1-61 0.9zm-32.7 79.4l-2.3 2.7c4.3-3.9 5.5-4.6 5.5-4 0 0.6-1.9 2.9-4.2 5.1-2.4 2.3-5.9 5-7.8 6-2.9 1.5-7.1 1.9-24.5 2.5-16.3 0.6-22.9 1.2-29.5 2.9-4.7 1.1-12.1 3.8-16.5 5.9-4.4 2.1-11.8 6.7-16.4 10.2-4.7 3.5-9.9 8.3-11.8 10.6-1.8 2.4-3.7 4.1-4.3 3.8-0.6-0.3-1.3 0.1-1.7 0.7-0.6 1-0.4 1 0.7 0.3 1.1-0.8 1.3-0.6 0.8 0.5-0.3 0.8-1.1 1.4-1.7 1.2-0.6-0.1-0.9 0.2-0.6 0.8 0.3 0.6-0.4 1.9-1.5 3-1.1 1.1-1.7 2-1.4 2 0.3 0-0.1 0.6-0.8 1.2-0.7 0.7-2.9 5.8-4.7 11.3-1.9 5.5-4.7 12.9-6.3 16.5-1.6 3.6-5.3 10.1-8.3 14.5-2.9 4.4-8.4 11.1-12.1 14.8-3.8 3.8-10.7 9.5-15.4 12.7-4.7 3.1-10.9 6.6-13.8 7.6-2.8 1.1-5.2 2.3-5.2 2.9 0 0.6-3.3 2.6-7.4 4.5-5.1 2.4-7.2 3.9-6.8 4.8 0.6 1 2.7 0.9 10.7-0.7 5.5-1.1 13.6-3.2 18-4.7 4.4-1.4 11.6-4.3 16-6.3 4.4-2.1 10.7-5.4 14-7.5 3.3-2.1 9-6.1 12.8-9l6.7-5.1c0-26.8 0.2-28.6 1.7-29.3 1-0.5 3.4-0.8 5.3-0.7 1.9 0 4.1 0.4 4.7 0.8 1 0.5 1.3 4.9 1.3 16.7 0 8.8 0.5 18.4 1.1 21.3 0.6 2.8 2.2 7.2 3.4 9.7 1.3 2.5 3.8 6 5.7 7.9 1.8 1.9 5.5 4.4 8.3 5.7 3.4 1.5 4.5 2.4 3.5 2.8-0.8 0.3-0.4 0.3 1 0 1.4-0.4 10.9-0.9 21.2-1.1 10.4-0.1 18.8-0.6 18.8-1.1 0-0.4-1.1-2.5-2.4-4.7-1.6-2.8-3.9-4.8-7.7-6.8-3-1.5-6.1-2.7-7-2.7-0.8 0-2 0.6-2.6 1.2-0.9 1-1.2 1-1.7 0q-0.6-1.2-8.1-1.2c-5.3 0-7.9-0.4-9-1.5-0.8-0.8-1.5-2.1-1.5-2.8-0.1-0.6 0.5-1.7 1.2-2.3 0.7-0.6 3.1-1.5 5.3-1.9 2.2-0.4 5.1-1.3 6.5-2 1.4-0.7 3.7-2.6 5.2-4.4 1.6-1.7 3.3-5 3.9-7.4 0.6-2.3 0.9-8 0.7-12.7-0.3-6.1-1.1-9.7-2.6-12.8-1.5-2.7-3.5-4.8-6-6.1-2-1-5.4-2.1-7.5-2.5-2-0.3-3.7-1-3.7-1.6 0-0.6-0.4-0.8-1-0.5-0.6 0.3-1.3-0.2-1.8-1-0.4-0.9 0-2.3 1.3-3.6 1.6-1.7 2.7-1.9 6-1.4 2.2 0.4 5.6 1.4 7.5 2.2 1.9 0.8 5.2 3.1 7.4 5.1 2.1 2 4.7 5.5 5.7 7.7 1.4 3.1 1.9 6.7 2.1 16l0.2 12 1.1-22c49.4-0.4 55.4-0.8 55.2-1.8-0.2-0.6 0.4-1.9 1.2-2.8 1.1-1.1 2.3-1.3 3.8-0.7 1.3 0.4 2.3 1.2 2.3 1.8 0 0.6 0.4 0.8 1 0.5 0.5-0.3 1.9-0.1 3 0.5 1.1 0.6 2.4 1.8 2.9 2.7 0.5 1 3.6 13.2 7 27.1 3.4 13.8 6.9 26.7 7.8 28.4 0.9 1.8 1.6 3.6 1.5 4-0.1 0.5 0.5 0.8 1.3 0.8 0.8 0 1.7-0.4 2-1 0.3-0.6 6.8-1 16.5-1h16c-1-3.5-2.3-6-3.6-7.8-1.3-1.7-3.4-3.9-4.7-4.7-1.2-0.8-4.2-1.8-6.7-2.2-2.5-0.3-5.3-1-6.3-1.4-1.5-0.8-1.7-2.9-1.7-23.2 0.1-15.9 0.4-22.7 1.3-23.8 0.7-0.9 1.8-1.4 2.4-1.2 0.7 0.2 1.3-0.6 1.3-1.7 0-1.1 0.5-2.3 1.1-2.8 0.8-0.5 0.9-2.5 0.5-6.2-0.4-3-1.6-8.8-2.7-12.8-1-3.9-3.1-10-4.5-13.4-1.4-3.5-5-9.9-7.8-14.3-2.9-4.4-7.9-10.7-11.2-14.1-3.2-3.3-8.8-8.2-12.4-10.8-3.6-2.7-7.7-5.4-9.2-6.2-2.4-1.2-2.8-1.1-5 1.4zm102 93.3c-3.5 3.9-8.9 9.1-12.1 11.3-3.1 2.3-5.7 4.7-5.7 5.4 0 0.6 1.4 7.6 3.1 15.5 1.8 7.8 3.9 15.3 4.9 16.7 0.9 1.4 3.1 3.2 4.9 4 2.5 1.2 3.4 1.2 4.3 0.3 0.9-0.9 5.2-1.3 15-1.3h13.8c-2.4-5.8-4.1-8.6-5.3-9.8-1.2-1.3-3.6-3.1-5.2-3.9-2.1-1-3.3-1.1-4-0.4-0.7 0.7-1.9 0.4-3.8-0.9l-2.7-2-0.9-42.2zm-103.6 29.7c-13.2 0.2-13.2 0.3-12.6 2.5 0.3 1.2 1.7 4.2 3 6.5 1.3 2.3 3.1 4.2 3.9 4.2 0.8 0 1.9 1.2 2.5 2.5 0.6 1.5 2.8 3.4 5.2 4.5 2.4 1.1 6.6 2.6 9.4 3.3 4.6 1.1 5.3 1.1 6.8-0.5 1.1-1.2 1.3-2.3 0.7-3.5-0.4-1-1.8-5.9-3-11-1.1-5.1-2.2-9.2-2.4-9-0.1 0.1-6.2 0.3-13.5 0.5z"/></svg>