<svg version="1.2" xmlns="http://www.w3.org/2000/svg" viewBox="0 0 411 308" width="411" height="308"><style>.a{fill:none}</style><path class="a" d="m287.8 30.1c-2.1 0.5-5.3 1.6-7.1 2.5-1.7 0.9-5.2 3.1-7.7 4.9-2.5 1.8-5.9 3.6-7.5 4-1.6 0.4-4.5 1.6-6.3 2.6-1.7 1.1-4.1 3.7-5.2 5.9-1.2 2.3-2 6-2 8.7 0 3.1 0.8 6.1 2.1 8.3 2 3.3 2.1 4.7 1.8 21.5-0.4 17-0.5 18.2-2.9 22.5-1.4 2.4-4.5 5.8-6.8 7.5l-4.4 3c-34.5 1.1-43.8 1.8-48.8 3-4.1 0.9-10.9 3.1-15 4.8-4.1 1.7-10.6 4.9-14.5 7.1-4.4 2.6-10.7 7.8-17 14.1-6.3 6.3-11.5 12.6-14.1 17-2.2 3.9-5 9.5-6.2 12.5-1.2 3-3.6 9.6-5.4 14.5-1.8 5-5.6 12.8-8.3 17.4-2.8 4.5-7.8 11.2-11.1 14.9-3.4 3.7-9.9 9.4-14.5 12.7-4.6 3.3-15.1 9.4-23.4 13.6-8.2 4.1-19.5 9-25 10.8-5.5 1.8-12.6 3.6-15.9 4-3.2 0.3-6.2 1-6.7 1.6-0.5 0.6-0.8 2.1-0.7 3.5 0.2 1.4 1.3 2.9 2.8 3.7 1.4 0.6 7.4 1.5 13.5 1.8 6.5 0.4 15.5 0.2 22-0.5 6-0.6 14.1-1.8 18-2.6 3.8-0.8 11.3-2.8 16.5-4.5 5.2-1.7 13.8-5.2 19-7.7 5.2-2.6 13.7-7.5 18.7-10.9 7.9-5.4 9.4-6 9.9-4.5 0.3 0.9 1.3 3.5 2.1 5.7 0.8 2.2 2.8 5.8 4.3 8 1.5 2.2 4.4 5.5 6.4 7.3 2 1.7 5.5 4.2 7.8 5.3 2.4 1.2 7.2 2.8 10.8 3.5 4.3 0.9 13.9 1.4 28.7 1.4 18.3 0 22.4-0.3 23.7-1.5 0.9-0.8 1.6-2.7 1.6-4.2 0-1.6-0.6-5-1.4-7.8-0.8-2.7-3-7-4.9-9.5-2.2-3.1-5.4-5.6-9.8-7.8l-6.4-3.3 31.7 0.6c3.4 9.3 5.9 14.3 7.9 17 1.9 2.8 6 6.7 9 8.8 3 2.1 7.6 4.5 10.4 5.4 4.1 1.4 10.9 1.8 39 2.1 30.2 0.4 34.2 0.2 35.7-1.2 1-0.9 1.8-2.8 1.8-4.4 0-1.5-0.7-5.2-1.6-8.2-0.9-3-2.9-7.4-4.5-9.8-1.6-2.3-4.6-5.3-6.7-6.7-2-1.3-5.2-2.8-7.1-3.2-1.8-0.4-3.5-1.1-3.7-1.6-0.2-0.4 2-1.2 4.8-1.8 2.9-0.7 7.5-2 10.3-3.1 2.7-1 5-1.7 5.1-1.6 0 0.2 1.3 6.2 2.8 13.3 1.6 7.1 3.6 14.5 4.5 16.4 0.9 1.9 3.3 4.9 5.3 6.8 2.1 1.8 5.5 3.7 7.5 4.3 2.1 0.5 12.2 1 22.5 1 18.4 0 18.8-0.1 20.4-2.2 1.3-2 1.3-3.2 0.3-8.3-0.6-3.3-2.1-8-3.4-10.5-1.2-2.5-4.2-6.2-6.6-8.3-2.4-2.1-5.8-4-7.7-4.2l-3.2-0.5c0-49.7 0.1-51.4 2.4-58.3 1.3-3.9 2.9-10.7 3.5-14.9 0.7-4.8 1.1-25.9 1.1-55 0-45.5 0.1-47.5 2-51.3 1.1-2.2 2-5.3 2-7 0-1.7-1-5-2.2-7.5-1.3-2.5-3.9-5.5-5.8-6.8-1.9-1.2-4.4-2.2-5.5-2.2-1.1 0-3.6-1.3-5.5-2.8-1.9-1.6-5.1-3.8-7-4.9-1.9-1.2-6-2.8-9-3.7-4.5-1.3-10.3-1.6-31.5-1.5-14.3 0.1-27.7 0.5-29.8 1z"/><path class="a" d="m282 60.8c-2 1.8-3.2 3.7-3.2 5 0.1 1.2 0.9 2.4 1.7 2.7 0.8 0.3 1.5 1.2 1.5 2 0 0.8 1.2 1.8 2.8 2.1 1.9 0.4 3.5 0 5.2-1.3 1.4-1.1 2.6-3.2 2.8-4.7 0.2-2.1-0.5-3.5-3-5.7-1.8-1.6-3.6-2.9-3.9-2.9-0.3 0-2 1.3-3.9 2.8zm64.3-1.5c-1.2 0.7-3 2.3-4.1 3.7l-2.1 2.5c6.1 5.8 8.8 7.5 9.9 7.5 1.2 0 3.2-1.1 4.5-2.5 1.4-1.4 2.5-3.2 2.5-4 0-0.8-0.6-2.6-1.2-4-0.7-1.4-2.3-2.9-3.5-3.5-1.3-0.5-2.6-1-3-1-0.5 0.1-1.8 0.6-3 1.3z"/></svg>