<svg version="1.2" xmlns="http://www.w3.org/2000/svg" viewBox="0 0 411 308" width="411" height="308"><style></style><path  d="m282 60.8c-2 1.8-3.2 3.7-3.2 5 0.1 1.2 0.9 2.4 1.7 2.7 0.8 0.3 1.5 1.2 1.5 2 0 0.8 1.2 1.8 2.7 2.1 2 0.4 3.6 0 5.3-1.3 1.4-1.1 2.6-3.2 2.8-4.7 0.2-2.1-0.5-3.5-3-5.7-1.8-1.6-3.6-2.9-3.9-2.9-0.3 0-2 1.3-3.9 2.8zm64.3-1.5c-1.2 0.7-3 2.3-4.1 3.7l-2.1 2.5c6.1 5.8 8.8 7.5 9.9 7.5 1.2 0 3.2-1.1 4.5-2.5 1.4-1.4 2.5-3.2 2.5-4 0-0.8-0.6-2.6-1.3-4-0.6-1.4-2.2-2.9-3.5-3.5-1.2-0.5-2.5-1-3-1-0.4 0.1-1.7 0.6-2.9 1.3z"/></svg>