<svg version="1.2" xmlns="http://www.w3.org/2000/svg" viewBox="0 0 411 308" width="411" height="308"><style>.a{fill:#e3ad84}</style><path class="a" d="m288.5 39.4c-2.2 0.6-5.6 2.3-7.5 3.6-1.9 1.3-4.6 3.4-6 4.7-1.4 1.3-3.9 2.5-5.5 2.7-1.6 0.2-3.3 0.4-3.8 0.5-0.4 0-1.6 1-2.7 2.1-1.1 1.1-2 2.4-2 3 0 0.6 1.3 0.3 3-0.5 1.6-0.8 4-1.5 5.3-1.5 1.2 0 3.3-1.2 4.7-2.8 1.4-1.6 5.3-4.2 8.5-5.8l6-2.9h60c9.3 5.1 12.5 6.5 13 6.5 0.5 0-0.4-1.1-2-2.5-1.6-1.4-5.1-3.7-7.8-5-2.6-1.4-6.6-2.8-8.9-3.1-2.8-0.5-4.6-0.3-5 0.5-0.6 0.8-6.7 1.1-20.1 1.1-11.7 0-19.6-0.4-20-1-0.4-0.6-1.7-1-2.9-0.9-1.3 0-4.1 0.6-6.3 1.3zm77.4 87.1l-0.4 40c-5 13.9-8 20.4-9.7 23.4-1.8 2.9-6 8.3-9.3 11.9-3.3 3.6-8.7 8.4-12 10.7-3.3 2.4-8.7 5.6-12 7.2-3.3 1.7-7.7 3.5-9.8 4.2-3.6 1.1-3.7 1.3-3.7 5.6 0 3.3 0.4 4.5 1.5 4.5 0.8 0 4.5-1 8.2-2.3 3.8-1.3 9.7-3.9 13.3-5.9 3.6-2.1 9-5.8 12-8.3 3-2.5 7.4-6.9 9.8-9.8 2.3-2.9 6-8.6 8.1-12.7 2.2-4.1 5-10.9 6.2-15 2.1-7.2 2.3-9.4 2.6-48.5 0.2-26.9 0-41.4-0.7-42.2-0.5-0.7-1.5-1.1-2-0.8-0.5 0.3-1.2-0.1-1.4-0.7-0.2-0.7-0.5 16.7-0.7 38.7zm-108.7-5.5c-0.7 1.1-3.3 3.4-6 5-2.6 1.7-6.7 3.6-9.1 4.2-2.4 0.6-4.5 1.4-4.7 1.9-0.2 0.5-5.2 0.9-11.2 0.9-6.6 0-11.1-0.4-11.7-1.1-0.7-0.8-3.5-0.8-10 0-4.9 0.6-12.1 2-16 3.2-3.9 1.2-9.7 3.5-13 5.1-3.3 1.7-8.7 5-12 7.3-3.3 2.4-8.7 7.1-12.1 10.6-3.3 3.5-7.4 8.4-9 10.9-1.7 2.5-3.4 5.2-3.9 6-0.4 0.8-0.6 1.3-0.3 1 0.3-0.3 3.2-3.9 6.5-8 3.5-4.5 9.3-10 14.3-13.9 4.7-3.5 12.1-8.1 16.5-10.2 4.4-2.1 11.8-4.8 16.5-5.9 6.6-1.7 13.2-2.3 29.5-2.9 18.5-0.6 21.5-0.9 25-2.8 2.2-1.1 5.9-4.1 8.2-6.7 2.4-2.5 4.3-5 4.3-5.6 0-0.6-0.1-1-0.3-1-0.2 0-0.8 0.9-1.5 2zm49.9 77.9c-0.7 1.4-1.1 3.5-0.9 4.6 0.2 1.2 1.1 2 2.3 2 1.2 0 2.1-0.8 2.3-2 0.2-1.1-0.3-3.2-1.1-4.6l-1.5-2.7zm-164.5 5.9c-0.2 0.4 0.2 1.7 1 2.8 1 1.4 1.4 5.4 1.4 15.5 0.1 7.5-0.3 13.9-0.9 14.5-0.6 0.6-0.5 2.9 0.3 6.5 0.7 3 2.2 7.3 3.4 9.5 1.1 2.2 4.2 5.9 6.9 8.2 2.7 2.4 6.9 5 9.4 5.8 2.4 0.8 5.1 1.5 6 1.5 0.8-0.1-0.8-1.1-3.5-2.4-2.8-1.3-6.5-3.9-8.4-5.7-1.8-1.9-4.3-5.5-5.6-7.9-1.3-2.5-2.8-6.9-3.4-9.8-0.6-2.9-1.1-12.4-1.1-21.2 0-15-0.2-16.1-2-17-1.1-0.6-2.2-1-2.5-1-0.2 0-0.7 0.3-1 0.7zm123.9 3c0.3 1 3.2 13 6.6 26.8 3.3 13.7 6.6 26.3 7.2 27.9 0.7 1.6 2.6 3.7 4.3 4.7 1.6 1 3.3 1.8 3.7 1.9 0.4 0-0.1-1.5-1.2-3.3-1.1-1.8-4.7-14.7-8.1-28.7-3.4-14.1-6.5-26.3-7-27.3-0.5-1-1.8-2.2-2.9-2.7-1.1-0.6-2.3-1-2.6-1-0.4 0-0.4 0.7 0 1.7zm-64.2 2.8c-0.4 0.8-0.3 2 0.3 2.5 0.6 0.6 11.9 0.8 28.5 0.7 26.7-0.2 27.5-0.3 27.5-2.2 0-2-0.8-2.1-27.8-2.3-24.3-0.2-27.8-0.1-28.5 1.3zm-0.8 19.9l-0.9 5.5c57.6 0.1 64.4-0.2 64-1.2-0.2-0.7-0.9-3.2-1.5-5.5l-1-4.2h-59.7z"/></svg>