<svg version="1.2" xmlns="http://www.w3.org/2000/svg" viewBox="0 0 411 308" width="411" height="308"><style>.a{fill:#7f7f7f}</style><path fill-rule="evenodd" class="a" d="m166.5 120.3c2.4 0.1 5.3 1.1 7.3 2.4 1.7 1.3 3.8 2.1 4.5 1.8 0.6-0.3 2.8 1 4.7 3 2.7 2.7 3.1 3.5 1.8 3.5-1 0-4.2-1.3-12.3-5.7l-9 1.3c-5.3 0.7-11.1 2.2-14 3.7-2.7 1.3-6.3 4-8 6-1.7 2-3.7 4.6-4.7 5.9-1.1 1.6-2 2-2.8 1.3-0.9-0.8-0.9-1.6 0-3.5 1.1-2.4 1-2.4-0.5-0.5-0.8 1.1-1.5 2.6-1.5 3.3 0 0.7-0.8 1-2.2 0.6-1.3-0.3-3.6-0.9-5.3-1.3-1.7-0.4-4.5-1.7-9.5-5.1l-9 4 1.8 3c1.2 2.2 2.7 3.2 5.2 3.6 1.9 0.3 4.8 1.6 6.5 2.9 2.5 2.1 2.8 2.6 1.5 3.5-0.8 0.5-2.5 1-3.7 1-1.3 0-4.7 1.1-7.5 2.3-4.2 1.9-5.3 2.9-5.3 4.7 0 1.9-2 3.7-9.5 8.7-5.2 3.5-10.3 6.3-11.3 6.3-1 0-1.6-0.7-1.4-1.7 0.1-1 2-2.4 4.2-3.3 2.2-0.8 5.7-3.1 7.7-5 2.1-1.9 3.8-3.8 3.8-4.2 0-0.5-2.1-0.5-4.7-0.2-3.4 0.4-4.4 0.3-3.3-0.4 0.8-0.5 5.1-2.2 9.5-3.6 4.4-1.5 9-3.1 10.3-3.7 1.2-0.5 2.2-1.3 2.2-1.9 0-0.6-1.3-1-3-1-1.7 0-3-0.3-3-0.7 0.1-0.5-1.5-2.6-3.5-4.8-1.9-2.2-3.5-4.3-3.5-4.7 0-0.5 1.2-1.9 2.8-3.2 1.5-1.4 4.3-3.2 6.2-4.2 3.3-1.6 3.9-1.6 9.5 0 3.3 0.9 7.3 2.1 9 2.6 1.7 0.5 3.3 0.7 3.8 0.5 0.4-0.3 0.7-1.2 0.7-2 0-0.9-1.6-1.9-4.3-2.6-2.3-0.6-5.1-1.5-6.2-2-1.4-0.6 0.1-0.8 4.5-0.6 3.8 0.2 6.6 0.9 6.8 1.5 0.1 0.7 0.9 1.2 1.7 1.2 0.8 0 1.7-0.9 2-2 0.3-1.1 1.2-2 2-2 1.1 0 1.4 0.7 0.5 5l3.9-1.9c2.2-1 4.6-2.5 5.3-3.4 0.7-0.8 4.5-3.1 8.3-5 4.9-2.5 8.2-3.5 11-3.4zm64.5 45.8c1.4 0 3.6 0.6 5 1.4q2.5 1.3 2.6 4.2c0.1 1.5 0.5 3.9 0.9 5.3 0.3 1.4-0.2 0.7-1.2-1.5-1.1-2.2-3-4.8-4.4-5.8-1.3-0.9-3.5-1.7-4.9-1.7-1.4 0-5.2 0.8-8.5 1.7-3.3 0.9-6.7 2.2-7.5 2.9-0.8 0.8-2.1 1.4-2.7 1.4-0.7 0-1.3-0.4-1.3-1 0-0.6 1.2-1.5 2.8-2 1.5-0.6 3.6-1.5 4.7-2 1.1-0.5 4.3-1.4 7-1.9 2.8-0.5 6.1-0.9 7.5-1zm-52.8 6c0.5 0 2.9 0.5 5.5 1.1 2.7 0.7 5.2 1.8 5.8 2.4 0.6 0.7 4.2 1.4 8 1.7 3.8 0.3 8 0.1 9.2-0.4 2.1-0.8 1.9-0.5-1 3.2-1.7 2.3-3.6 4.4-4.2 4.8-0.6 0.3-0.7 0.1-0.3-0.7 0.5-0.6 0.4-1.2 0-1.2-0.4 0-1.3 0.6-2 1.3-0.7 0.6-1.2 0.8-1.3 0.2 0-0.6 1-1.7 2.3-2.6 2.3-1.6 2.2-1.7-3.2-2.4-3-0.4-5.9-1.1-6.5-1.6-0.6-0.5-4.9-1.4-9.7-2.1-4.8-0.7-8.4-1.6-8-2 0.4-0.3 1.6-0.8 2.7-1.1 1.1-0.3 2.3-0.5 2.7-0.6zm100.3 3.1c0.6-0.1-0.1 0.8-1.5 1.9-1.4 1.1-4.2 2.4-6.2 3-2.2 0.5-5.2 0.5-10.3-0.7l5-1.7c2.8-0.9 6.6-1.8 8.5-2 1.9-0.2 3.9-0.4 4.5-0.5zm-110.3 4.8c3.5 0 10.8 1.1 16.3 2.5 5.5 1.4 10.2 2.7 10.5 3 0.3 0.3-0.5 0.5-1.8 0.5-1.2 0-6.6-0.7-12-1.6-5.3-0.9-11.8-1.4-14.4-1.2-4 0.2-4.8 0-4.8-1.4 0-1.5 1-1.8 6.2-1.8zm86.8-101.9c0.3 0 1.2 0.3 2 0.8 1.2 0.7 1 1-1 1.5-1.4 0.3-3.1 0.6-3.7 0.6-0.7 0-1.4-0.4-1.5-0.9-0.2-0.5 0.6-1.2 1.7-1.4 1.1-0.3 2.2-0.5 2.5-0.6zm11.5 1.8c1.3 0.3 2.5 0.9 2.5 1.4 0 0.4 0 1 0 1.5 0 0.4-1.3 0.6-2.8 0.4-1.5-0.2-3.4-0.6-4.2-0.9-1.3-0.4-1.2-0.6 0.3-1.8 1-0.8 2.7-1 4.2-0.6zm-25.8 4.6c1.5 0 3 0.5 3.2 1 0.3 0.6-0.8 1.3-5.4 2.2l3 0.7c1.7 0.4 3.8 1 4.8 1.2 0.9 0.2 1.5 0.9 1.2 1.4-0.3 0.6-3.3 0.9-6.7 0.8-3.8-0.1-6.8-0.7-7.5-1.5-0.7-0.7-1.2-1.4-1-1.6 0.1-0.2 1.4-1.2 2.9-2.3 1.5-1.1 4-2 5.5-1.9zm18.8 4c2.2 0.3 4.4 1 5 1.6 0.6 0.6-1.3 0.9-5.5 1-6 0-6.4-0.1-5-1.7 1.1-1.2 2.4-1.4 5.5-0.9zm-67.6 1c1.4 0.3 3 0.9 3.5 1.3 0.4 0.4 0.5 1.3 0.2 2-0.3 0.6-1.6 1.2-2.9 1.2-1.2 0-2.9-0.4-3.7-0.9-1-0.6-1.2-1.5-0.6-2.6 0.6-1.3 1.5-1.5 3.5-1zm14-0.5c0.3-0.1 2.3 1.7 4.3 4 2.1 2.2 3.8 4.9 3.8 6 0 1.1-0.3 2-0.8 2-0.4 0-1.6-0.9-2.7-2-1.1-1.1-2.9-2.2-4-2.4-1.1-0.2-1.8-1-1.6-1.7 0.2-0.8 0.4-2.4 0.4-3.6 0-1.3 0.2-2.3 0.6-2.3zm63.3 0c1.3 0 4.2 0.9 6.5 2 2.4 1.1 4.3 2.2 4.3 2.5 0 0.3-0.2 1.2-0.5 2-0.3 0.8-1.1 1.5-1.7 1.5-0.7 0.1-2.2-0.9-3.3-2-1.1-1.1-3.3-2.6-4.8-3.3-1.5-0.6-2.8-1.5-2.7-1.9 0-0.5 1-0.8 2.3-0.8zm-100.4 4c1.3 0 2.1 0.3 1.7 0.8-0.5 0.4-1.6 1.2-2.6 1.7-0.9 0.6-3.1 1.8-4.9 2.8-3 1.7-3.1 1.7-3.3-0.3-0.1-1.5 0.9-2.5 3.3-3.5 1.9-0.8 4.5-1.4 5.8-1.5zm91.4 0.1c2.6-0.1 6.3 0.6 8.2 1.4 1.9 0.8 3.5 2.2 3.5 3 0 0.9-0.9 1.5-2.2 1.5-2.1 0.1-2 0.2 0.7 1.7 1.6 0.9 4.9 3.2 7.1 5.2 2.3 2 5.2 4.3 6.5 5.1 1.3 0.9 2 2 1.6 2.8-0.4 0.6-2.4 1.2-4.4 1.2-2.1-0.1-6.7-0.8-10.3-1.6-3.6-0.9-7.9-1.7-9.5-1.9-1.6-0.2-3.9-0.6-5-1-1.1-0.3-2.8-1.7-3.7-3.1-1.7-2.3-1.7-2.4 0.2-3.4 1.5-0.8 3.4-0.4 7.8 1.4 3.1 1.2 8.2 2.6 11.2 3 3.6 0.4 5 0.4 4-0.3-0.8-0.5-5.6-2.3-10.5-4-4.9-1.7-11.2-3.5-13.9-3.9-3-0.4-5.1-1.3-5.4-2.2-0.5-1.3 0.4-1.4 5.9-0.9q6.4 0.7 3.7-0.2c-1.6-0.5-2.9-1.3-3-1.8-0.1-0.5 0.5-1.2 1.3-1.4 0.7-0.3 3.5-0.6 6.2-0.6zm-59.9 0.9c0.6 0.1 3 2.3 5.4 5 2.4 2.8 4 5.7 3.7 6.5-0.4 1.1-2 0.2-6.4-3.7-4.4-3.9-5.7-5.6-4.9-6.5 0.6-0.7 1.5-1.3 2.2-1.3zm31.5 3c0.5 0 0.7 1.2 0.4 2.8-0.2 1.5-1.2 3.8-2.1 5.2-0.9 1.3-2.5 2.7-3.5 3-1 0.3-1.6 1-1.3 1.5 0.3 0.6 0 1.8-0.7 2.7-0.7 0.9-2.4 1.9-3.9 2.2-2.1 0.5-2.8 0.2-2.8-0.9 0-0.8 0.8-2.3 1.8-3.3 0.9-1 3-3.6 4.7-5.7 1.6-2.2 3.8-4.8 4.7-5.7 1-1 2.2-1.8 2.7-1.8zm-58.1 1c3.1 0 4.2 0.4 4.2 1.5 0 0.8-0.8 1.8-1.7 2.1-1 0.4-5.1 2-9 3.5-4 1.6-7.7 2.7-8.3 2.4-0.6-0.3-1.1-0.9-1.1-1.4-0.1-0.5 2.5-2.6 5.7-4.5 4.4-2.7 7-3.6 10.2-3.6zm9.9 6.3c2.8 0.1 5.6 0.7 6.1 1.2 0.6 0.6 0.8 2.5 0.6 4.3-0.3 2.5-0.9 3.2-2.6 3.2-1.3 0-3.6-0.6-5.3-1.4-2.7-1.3-4.1-1.3-12.7 0.2-5.3 0.9-10 1.4-10.5 1-0.4-0.5-0.1-1.6 0.8-2.7 0.9-1 3.1-2.1 5-2.4 1.9-0.3 5.7-1.3 8.4-2.1 2.8-0.9 7.3-1.5 10.2-1.3zm-14.4 4.5c-1.3 0.7-2.2 1.4-2 1.7 0.1 0.2 2.3-0.2 4.9-0.9 2.5-0.7 5.6-1.2 6.7-1 1.2 0.2 3.1 0.9 4.4 1.6 1.2 0.7 2.8 1.3 3.5 1.5q1.2 0.3 0.9-2.4c-0.3-2.5-0.8-2.8-4.3-2.9-2.1-0.1-5.7 0.1-7.9 0.5-2.2 0.4-5 1.2-6.2 1.9zm-54.3 1.7c0.8 0.2 3.9 0.8 6.8 1.4 2.8 0.6 5.4 1.6 5.7 2.1 0.3 0.6 0.3 1 0 1-0.3 0-3.3-0.7-6.7-1.6-3.6-0.9-7.8-1.4-9.8-1-1.9 0.3-5.6 1.7-8.2 3.1-4 2.1-4.6 2.2-3.9 0.8 0.5-1 1.5-2.4 2.2-3.1 0.8-0.7 3.9-1.6 6.9-2.1 3-0.4 6.2-0.7 7-0.6zm128.3 0.5c1.8 0 4.2 0.7 5.4 1.5 1.3 0.8 2.3 2.2 2.3 3 0 1.2-0.9 1.4-4.8 0.9-2.6-0.3-5.3-1.1-6.1-1.7-0.7-0.7-1-1.8-0.7-2.4 0.4-0.7 2.1-1.3 3.9-1.3zm-88.6 2.1c1.3-0.1 2.3 0.4 2.3 0.9 0 0.6-0.5 1-1 1-0.6 0-3.5 1.6-6.5 3.5-3 1.9-5.7 3.5-6 3.5-0.3 0-0.5-1.1-0.5-2.5 0-1.4 0.6-2.8 1.2-3.2 0.7-0.5 2.9-1.3 4.8-1.9 1.9-0.7 4.5-1.2 5.7-1.3zm107.6 1.9c1.2 0 3.2 0.2 4.4 0.5 1.5 0.3 2.3 1.2 2.3 2.5 0 1.6-0.7 2-3.3 2-2.5 0.1-3.5-0.5-4.4-2.5-1.1-2.3-1-2.5 1-2.5zm-73.1 3.3c1.6 1.2 4.4 4.2 6.2 6.7 1.8 2.5 3.6 5.2 4 6 0.4 0.8-0.1 0.4-1.1-1-1-1.4-3.8-4.7-6.4-7.5q-4.6-5-5.2-3.7c-0.4 0.7 1.4 3.4 4.3 6.5 2.7 2.8 5 5.5 5 6 0 0.4-2.5-1.9-5.5-5-3-3.2-5.5-6.5-5.6-7.4-0.1-0.9 0.1-1.8 0.5-2.2 0.4-0.3 2.1 0.4 3.8 1.6zm-53.5-0.3c1 0 2.7 1 3.9 2.2 1.1 1.3 2 3 2 3.8-0.1 0.8-0.9 1.6-1.9 1.7-0.9 0.2-2.4-0.1-3.2-0.7-0.8-0.5-1.3-1.7-1-2.5 0.3-0.8 0-1.7-0.5-2-0.6-0.3-1-0.9-1-1.5 0-0.5 0.8-1 1.7-1zm38.5 40.2c1-0.1 1.8 0.2 1.8 0.8 0 0.6-2.1 1.3-4.8 1.6-2.6 0.4-7.5 1.7-11 3-5.8 2.2-6.3 2.3-7.1 0.7-0.7-1.5-1.6-1.7-4.8-1.1q-3.8 0.7-2.3-0.2c0.8-0.5 3.6-1 6.2-1 2.7 0 6.3-0.7 8-1.5 1.8-0.8 5.3-1.6 7.8-1.8 2.5-0.2 5.3-0.4 6.2-0.5zm-14.4-33.4c0.9 0.2 3.3-0.1 5.2-0.6 3.2-0.8 3.3-0.9 1.4-1.9-1.5-0.8-2.8-0.6-5.2 0.6-2.3 1.2-2.7 1.7-1.4 1.9zm-40.6 13.3c1.3 0.7 4.2 1.8 6.5 2.5 3.4 1.1 4.3 1.1 4.3 0.2 0-0.7-2.5-2.1-5.7-3-3.2-1-6.1-1.8-6.6-1.8-0.4 0-0.7 0.2-0.7 0.5 0 0.3 1 1 2.2 1.6zm-4 14.5c0.5 0.8 1.2 1.4 1.8 1.4 0.5 0 1-0.6 1-1.2 0-0.7-1.1-1.9-2.5-2.5-1.4-0.7-3.7-1.3-5.3-1.2-2.5 0.1-2.5 0.1 0.8 1.1 1.9 0.5 3.8 1.6 4.2 2.4zm130.5-32.6c1 0 3.5 1.3 5.5 3 2.1 1.6 3.8 3.5 3.8 4 0 0.6-1.7 1-3.8 1-3.3 0-3.9-0.4-5.5-3.5-0.9-1.9-1.7-3.7-1.7-4 0-0.3 0.8-0.5 1.7-0.5zm-127.2 1.2l-5.6 2.6c-3.1 1.5-6.9 3.2-8.5 3.9-1.6 0.7-3.5 2.3-4.2 3.7-0.6 1.4-1.5 2.6-2 2.6-0.4 0-0.8-1.8-1-4-0.1-3 0.3-4.5 2-6.1 1.4-1.3 3-1.9 4.3-1.5 1.1 0.3 2.7 0.1 3.5-0.4 0.8-0.5 3.7-0.9 11.5-0.8zm150 1.8c0.8 0 3.4 0.5 5.7 1 2.4 0.6 6 2.5 8 4.3 2 1.7 3.7 4 3.8 5 0 0.9-0.8 2-1.8 2.3-0.9 0.4-4.3-0.2-7.5-1.2-3.1-1-5.7-2.2-5.7-2.6 0-0.5 0.6-1 1.2-1.1 0.8-0.2-0.1-1.5-2-3-1.7-1.5-3.2-3.1-3.2-3.7 0-0.5 0.7-1 1.5-1zm7 7.5c-0.4 1.1 0.6 1.8 3.2 2.6 2.1 0.6 4 0.7 4.3 0.4 0.3-0.4-1.3-2.2-3.5-4.1-2.2-1.9-4.9-3.4-6-3.4-1.9 0-1.9 0.1 0.2 1.5 1.3 0.8 2.1 2.2 1.8 3zm-182-4.5c0.3 0 0.2 1.5-0.2 3.3-0.4 1.7-1 5-2 11.2l-0.3-5.3c-0.1-2.9 0.3-6.2 0.9-7.3 0.7-1 1.4-1.9 1.6-1.9zm207.8 0.4c2.3 0.1 3.3 0.6 3.5 2.1 0.2 1.1-0.2 3.7-0.9 5.8-0.8 2-2.1 3.8-2.9 4-0.8 0.2-2.5-0.2-3.8-0.7-1.4-0.7-2.2-2-2.2-3.3 0-1.3-0.5-2.5-1-2.8-0.6-0.3-1-0.9-1-1.5 0-0.6 0.9-1 2-1 1.1 0 2.2 0.4 2.5 1 0.3 0.6 1.1 1 1.7 1 0.9 0.1 0.7-0.6-0.5-1.7-0.9-1-1.5-2.1-1.2-2.4 0.3-0.3 2-0.6 3.8-0.5zm-132.1 2.6c1.6 0 4.6 1.1 6.8 2.5 2.2 1.4 4.3 3 4.7 3.7 0.6 0.9 0.1 1-1.7 0.5-1.4-0.4-4.2-0.7-6.3-0.7-3 0-3.6-0.3-3.4-1.7 0.1-1-0.4-2.3-1.3-3-1.3-1.1-1.1-1.2 1.2-1.3zm5 5c2.4 0 4.1-0.1 3.8-0.3-0.3-0.3-1.9-1.2-3.7-2-2.9-1.6-3.1-1.5-3.7 0.3-0.5 1.8-0.1 2 3.6 2zm74.5-3c1 0 3.6 0.5 5.8 1 2.2 0.6 4.1 1.2 4.2 1.5 0.2 0.3-0.2 1.4-0.7 2.5-0.7 1.5-2 2-4.8 2-3 0.1-3.9-0.4-5-2.5-0.6-1.4-1.2-2.9-1.2-3.5 0-0.6 0.8-1 1.7-1zm3.8 5.8c1.7 0.2 3.4-0.2 4-0.8 0.7-0.7 0.5-1.4-0.5-2-0.8-0.5-2.8-1-4.3-1-2.2 0-2.8 0.4-2.5 1.8 0.2 1.1 1.4 1.8 3.3 2zm-96.1-4.7c1.2-0.1 1.6 0.3 1 0.8-0.5 0.5-2.6 1.6-4.7 2.5-2.3 1-3.9 1.2-4.2 0.6-0.3-0.6-0.4-1.2-0.3-1.4 0.2-0.2 1.6-0.8 3.3-1.4 1.6-0.6 3.9-1.1 4.9-1.1zm33.7 2.9c1.6 1.9 4.1 5.2 5.6 7.3 1.6 2 2.5 4.1 2 4.5-0.4 0.4-1.8 0.1-3.2-0.5-1.4-0.7-3.4-1.3-4.5-1.3-1.1 0-2-0.7-2-1.5 0-0.8 0.9-1.5 2-1.5 1.1 0 2-0.4 2-1 0-0.6-0.8-1-1.8-1-0.9 0.1-2.9-0.8-4.5-2-1.5-1.1-2.7-2.7-2.7-3.5 0-0.9 0.6-1.3 1.5-1 0.8 0.3 1.8-0.1 2.1-0.7 0.5-0.9 1.6-0.2 3.5 2.2zm-5 1.7c0.8 0.7 3 1.7 4.9 2.3l3.5 1c-4.1-4.6-5.4-6-5.6-5.9-0.2 0-1.2 0.3-2.3 0.7-1.5 0.6-1.6 0.9-0.5 1.9zm12.4-2.2c0.9 1.3 2 1.7 3 1.3 0.9-0.5 1.3-0.4 1 0.2-0.3 0.6-0.1 1 0.5 1 0.5 0 1.2 0.6 1.5 1.3 0.3 0.6 3 3.9 6 7.2 3 3.3 5.5 6.3 5.5 6.8 0 0.4-1 0.7-2.3 0.7-1.7 0-1.9-0.2-0.7-0.9q0.1-0.1 0.2-0.1c0.5-0.2 0.8-0.4 0.8-0.7 0-0.2-0.3-0.6-0.7-1.2-0.4-0.7-1.2-1.7-2.3-3-1.6-1.9-3.1-3.5-3.6-4l-1.4-1.6 1.2 3.5q0.1 0.6 0.4 1.2 0.2 1.8-2.3-3.1c-1.6-2.9-3.7-5.7-4.8-6.1-1.1-0.4-2.3-1.5-2.8-2.6-0.6-1.7-0.6-1.7 0.8 0.1zm8.9 8.6l2.6 2.9c1.4 1.6 2.6 3.1 3.3 4.1 0.6 1 0.5 1.5-0.1 1.9q-0.2 0-0.5 0c-0.6 0.1-1.9-0.7-2.8-1.7-0.7-0.8-1.6-2.5-2.3-4.1q0-0.2-0.1-0.4c-0.3-1.6-0.4-2.8-0.3-2.8q0.1 0 0.2 0.1zm-34.4-4.7c2.5 0.2 6.2 1.3 8.3 2.3 3.2 1.5 3.5 1.9 2 2.5-1 0.4-3.5 0.7-5.6 0.7-2 0.1-3.7 0.5-3.7 1.1 0 0.6-3.7 1.3-8.3 1.6-4.5 0.3-10.7 1.2-13.7 2-5.4 1.4-5.5 1.4-7.5-1.1-1.1-1.3-2.8-2.5-3.8-2.5-0.9 0-1.7-0.4-1.7-1 0-0.6 1.6-1.7 3.5-2.5 3.4-1.4 3.6-1.4 6 1 1.4 1.4 2.9 2.5 3.5 2.5 0.5 0 4.5-1.6 8.7-3.5 6.3-2.9 8.7-3.5 12.3-3.1zm-20.8 7.6c-1.2 0-3.1-1-4.2-2.2-1.3-1.5-2.5-2-3.5-1.5-1.3 0.6-1.3 1 0.2 3.2 1.4 1.9 2.4 2.4 4.3 2 1.4-0.2 7.2-1 13-1.7 6.4-0.7 10.8-1.7 11.2-2.5 0.5-0.7 2.1-1.3 3.8-1.3 1.7 0 2.8-0.4 2.5-1-0.3-0.5-3.1-1-6.3-0.9-3.9 0.1-7.7 1-12.2 3-3.6 1.5-7.5 2.9-8.8 2.9zm79.8-7.5c0.6 0.6 1.9 3.5 3 6.5 1.1 3 1.9 5.6 2 5.8 0 0.1-0.7 0.2-1.5 0.2-1 0-2.1-1.9-3-5.2-0.8-2.9-1.5-6-1.5-6.8q0-1.5 1-0.5zm-14.7 0.7c1.2 0.2 2.3 1.2 2.5 2.3 0.2 1.1 1.8 3.4 3.5 5.2 1.8 1.8 3.5 3 3.9 2.8 0.5-0.3 0.5-1.7-0.4-6l2.1 3c1.1 1.7 2.1 3.3 2.1 3.8 0 0.4-3.2 0.7-7 0.7-5.3 0-7.1-0.4-7.5-1.5-0.3-0.8-0.5-1.9-0.5-2.5 0-0.5 0.9-1.2 2-1.5 1.8-0.4 1.9-0.8 0.7-3-0.6-1.4-1.5-2.5-2-2.5-0.4 0-0.7 0.2-0.7 0.5 0 0.3 0.5 1.5 1.1 2.8 1 2.1 1 2.2-0.6 0.2-0.8-1.1-1.5-2.6-1.4-3.3 0-0.8 1-1.2 2.2-1zm109.9 1c2.4 0.5 5.4 0.6 6.8 0.3 1.6-0.4 2.9-0.1 3.6 0.8 0.8 1.2 0.4 1.6-2 2.1-1.7 0.3-4.3 0.6-5.9 0.6-1.5 0-3.8-0.6-5.2-1.2-1.4-0.7-2.6-1.6-2.7-1.9-0.1-0.3 0.2-0.8 0.5-1.1 0.4-0.3 2.6-0.1 4.9 0.4zm-31.2 1.3c3.6 0.2 8.6 1.3 11.2 2.4 2.8 1.2 7 2.1 10 2.1 3.2 0 7.1 0.9 9.8 2.1 2.5 1.2 6 3.3 7.8 4.7 1.8 1.5 2.9 3 2.5 3.5-0.4 0.4-3.5-0.7-6.8-2.3-3.3-1.7-6.3-3-6.8-3-0.4 0-0.8 0.8-1 1.8-0.1 0.9 1.2 2.9 3 4.5 1.8 1.5 3.3 3.4 3.3 4.2 0 0.8-0.5 1.5-1 1.5-0.6 0-3.1-1.1-5.8-2.5-2.6-1.4-5.8-2.5-7.2-2.5-1.4 0-3.4 0.6-4.5 1.4-1.1 0.7-5.2 1.6-9 1.9-3.9 0.3-12.2 1-18.5 1.7-6.3 0.6-12.2 0.8-13 0.5-1.1-0.4-1.2-0.8-0.4-1.6 0.7-0.6 3.4-1.1 6-1.1 2.7 0 6.9-0.8 9.4-1.8 2.5-0.9 8.5-2 13.5-2.4 4.9-0.3 10.3-1 15-2.4l-3-1.3c-1.7-0.8-4.8-2.6-7-4-3-1.9-5.9-2.8-11.5-3.3-4.1-0.4-10.1-0.7-13.3-0.6-3.1 0-5.9-0.4-6.2-1-0.3-0.6 1.4-1 4.2-1.1 2.7 0 6.6-0.4 8.8-0.9 2.2-0.5 6.9-0.7 10.5-0.5zm-9.6 18.9c-0.5 0.5 1.4 0.6 4.6 0.1 3-0.4 6.6-0.7 8-0.7 2.3 0.1 2.3 0 0.5-0.8-1.1-0.5-2.7-0.8-3.5-0.8-0.8 0-3.1 0.3-5.1 0.7-2 0.3-4.1 1-4.5 1.5zm-45.2-15c2.1 0.3 5.8 2 8.3 3.6 2.5 1.7 5.3 3 6.2 3 1 0 2.7 0.6 3.8 1.4 1.1 0.8 1.8 1.7 1.5 2.1-0.3 0.4-5.2-0.7-11-2.5-5.8-1.7-11.1-3.6-11.8-4.3-0.7-0.7-1.2-1.8-1.1-2.6 0.2-1 1.2-1.2 4.1-0.7zm1.8 4.1c0.8-0.3 2.4 0.1 3.5 1 1.1 0.8 2.7 1.5 3.5 1.5 0.8 0-0.1-1.1-2-2.5-1.9-1.4-4.1-2.5-4.8-2.5-0.6 0-1 0.5-0.7 1 0.3 0.6 0 1-0.5 1-0.6 0-1-0.4-1-0.9-0.1-0.5-0.9-1.2-1.8-1.6-1.4-0.5-1.3-0.3 0.3 1.4 1.1 1.2 2.7 1.9 3.5 1.6zm-146.3-3.5c0.1 0 1.4 0.8 2.8 1.8 2.4 1.6 2.5 1.8 1 4-0.8 1.2-1.1 2-0.5 1.7 0.5-0.3 1.2 0 1.5 0.5 0.3 0.6-0.3 1.3-1.3 1.6-1.1 0.3-2.4-0.3-3.5-1.8-1-1.3-1.8-3.2-1.9-4.4-0.1-1.1 0.2-2.4 0.7-2.7 0.5-0.4 1-0.7 1.2-0.7zm187.5 1c3.9 0 7.1 0.5 8.3 1.4 1.1 0.8 1.8 1.7 1.5 2-0.3 0.3-3 1.2-6 2.1-3 0.8-7 1.5-8.8 1.5-1.7 0-4.4-0.5-8.7-2.3l3.7-0.8c2.3-0.6 3.8-1.5 3.8-2.4 0-1.2 1.4-1.5 6.2-1.5zm0 4.7c2.4-0.5 5-1.2 5.8-1.7 1-0.6-0.4-0.9-4.3-1-4.8 0-5.7 0.3-5.7 1.8 0 1.5 0.5 1.6 4.2 0.9zm-205.8 0.3c1.7 0 2.6 0.4 2 0.9-0.5 0.4-2.1 1.1-3.7 1.5-1.5 0.3-2.8 0.2-2.9-0.2-0.1-0.5 0.2-1.2 0.7-1.5 0.5-0.4 2.2-0.7 3.9-0.7zm79.8 0c1.6 0 2.6 0.5 2.3 1-0.3 0.6-2.2 1-4.3 1-2.7 0-3.3-0.3-2.2-1 0.8-0.5 2.7-1 4.2-1zm-70.5 1c0.2 0 1.9 0.7 3.8 1.5 1.9 0.8 3.5 1.8 3.5 2.3 0 0.4-2.6 1.7-5.7 2.9-3.2 1.3-6.3 2.3-6.8 2.3-0.6 0-2.1-1.2-3.5-2.6-2.1-2.2-2.3-2.7-1-3.5 0.8-0.5 2.6-0.9 4-0.9 1.4 0 3.2-0.5 4-1 0.8-0.5 1.6-1 1.7-1zm-4.7 4.1c-2.3 0.1-2.2 0.2 0.8 1.3 2.7 0.9 3.5 0.8 5-0.5q1.7-1.7 0.6-2.2c-0.6-0.3-1.8-0.2-2.5 0.4-0.8 0.5-2.5 0.9-3.9 1zm-12.5-1.1c1.9 0 2.1 0.3 1.2 1.6-0.7 0.9-2.4 2.3-4 3-2.1 1.1-2.8 1.1-3.4 0.2-0.3-0.8 0.4-2.1 1.7-3 1.2-1 3.3-1.8 4.5-1.8zm143.4 0c0.5 0 0.6 0.6 0.2 1.3q-0.5 1.2 0.7 0.5c0.6-0.5 2.2-0.5 3.4-0.2 1.5 0.4 2 0.9 1.3 1.5-0.6 0.5-2.2 0.7-3.8 0.4-1.5-0.3-2.7-1.2-2.7-2 0-0.8 0.4-1.5 0.9-1.5zm-14.4 1.9l5.5 2.1c3.3 1.3 7.7 2.1 16.5 2.1l-2.5 1.8c-1.4 1-3.3 2.1-4.3 2.4-0.9 0.4-3.1 0-4.7-0.8-1.7-0.8-2.8-1.8-2.5-2.2 0.2-0.5 1.5-0.1 2.7 0.8 1.3 0.8 3.1 1.4 4 1.2 1-0.2 1.8-0.7 1.8-1.3 0-0.5-0.8-1-1.8-0.9-0.9 0-3.7-0.2-6.2-0.4-2.8-0.4-5.3-1.4-6.5-2.7zm33.7 0.2c1.8 0 3.3 0.7 4.3 2.2 0.8 1.2 1.5 3 1.5 4 0 1.6-0.2 1.6-4.3 0.1-2.6-1.1-5.4-1.4-7.5-1-2.9 0.6-3.1 0.4-2.5-1.4 0.5-1.1 1.9-2.4 3.3-2.9 1.4-0.5 3.7-0.9 5.2-1zm-7.7 3.6c7 0.9 9.8 1.5 10.9 2 1.7 0.8 1.8 0.6 0.5-2-0.9-1.7-2.2-2.7-3.4-2.7-1.1 0.1-3.4 0.7-5 1.4zm117.6 4.5c2.7 2.4 4.9 4.9 4.9 5.6 0 0.7-1 1.1-2.2 1-1.4-0.2-3.2-1.9-4.9-4.8-1.5-2.4-2.7-4.8-2.7-5.3 0-0.4 2.2 1.2 4.9 3.5zm-257.1-2.1c0.3 0-1.5 1.8-4 3.9-2.5 2.2-4.9 4-5.5 4.1-0.5 0-2.5 1.4-4.2 3-1.8 1.6-3.7 2.9-4.3 2.9-0.5 0-0.8-0.5-0.5-1.2 0.3-0.7 2-2.3 3.8-3.5 1.7-1.2 5-3.5 7.2-5 2.2-1.6 4.7-3.2 5.5-3.5 0.8-0.3 1.7-0.6 2-0.7zm89.8 0.1c0.6-0.1 1.2 0.3 1.2 0.8 0 0.6-1.2 1.3-2.7 1.6-1.6 0.4-5.4 1.4-8.5 2.3-3.1 0.9-5.5 2-5.3 2.4 0.3 0.4 2.2 0.4 4.3 0 2.2-0.4 3.5-0.3 3.1 0.3-0.4 0.5-1.8 1.3-3.3 1.7-1.4 0.4-4.1 2.1-5.8 3.7-3.1 2.9-3.2 3.1-1 3 1.2 0 2.2 0.5 2.2 1 0 0.6-1.5 1.5-3.2 2.1-1.8 0.5-5.8 1.3-8.8 1.6-3 0.4-7.9 1.7-10.7 3-2.9 1.3-6 2.3-6.8 2.3-0.8 0-1.5-0.3-1.5-0.7-0.1-0.4 0.7-1.5 1.7-2.5 1-0.9 5.6-2.4 10.3-3.3 4.7-0.9 9.3-2.1 10.3-2.6 1.2-0.6 1.7-2.1 1.7-4.8 0-3.4-0.3-3.9-1.8-3.3-1.4 0.6-1.4 0.3 0.3-1.4 1.1-1.1 4.7-2.8 8-3.8 3.3-1 8-2.1 10.5-2.5 2.5-0.5 5.1-0.9 5.8-0.9zm-21.3 8.1c0.3 1.2 0.5 3 0.5 4 0 1.5 0.3 1.6 2.5 0.5 1.4-0.7 2.5-1.7 2.5-2.3 0-0.5-0.2-2-0.4-3.2-0.1-1.2-0.7-2.2-1.2-2.1-0.5 0-1.7 0.2-2.6 0.5-1.3 0.2-1.7 1-1.3 2.6zm-69.3 12.7c0.4 0 0.8 0.3 0.8 0.5 0 0.3-0.9 2.1-2 4-1.2 2.2-2.8 3.5-4 3.5-1.1 0-2.1-0.3-2.2-0.7-0.1-0.3 1.3-2.1 3.2-4 1.9-1.8 3.7-3.3 4.2-3.3zm-23.3 16.1c2.4 0 4.2 0.1 4 0.4-0.2 0.3-3 1.2-6.1 2-3.2 0.8-6.2 1.5-6.8 1.5-0.5 0-0.7-0.4-0.3-1 0.3-0.6 1.6-1.5 2.7-2 1.2-0.4 4.1-0.9 6.5-0.9zm-6.5 7.7c0.4 0.2 0.8 1 0.7 1.8-0.1 0.8-1.1 1.6-2.3 1.9-1.3 0.2-3.1 0.3-4 0.2-1-0.1-1.8-0.9-1.8-1.9 0-1.3 0.9-1.8 3.3-2 1.7-0.2 3.6-0.2 4.1 0zm10.3 4.6c4 0.4 8.3 1.2 9.6 1.8 2.1 1.2 2 1.3-1.8 2.2-2.8 0.6-5.7 0.5-9.5-0.4-3-0.7-5.8-1.4-6.2-1.6-0.5-0.2-0.5-0.9-0.1-1.5 0.5-0.8 3-0.9 8-0.5zm-12.7 1.6c1.1 0 2 0.5 2 1 0 0.6 1.5 1.7 6.5 3.8l-3.5 0.7c-1.9 0.5-4.3 0.5-5.2 0.2-1.1-0.4-1.8-1.7-1.8-3.2 0-1.8 0.5-2.5 2-2.5z"/></svg>